# xmcd CD database file
#
# Track frame offsets:
#	150
#	16072
#	32197
#	50080
#	64775
#	90060
#	105230
#	124695
#	142357
#	161817
#	183942
#	200022
#	219522
#	245747
#	257077
#	274615
#	292945
#	312787
#
# Disc length: 4425 seconds
#
# Revision: 3
# Processed by: cddbd v1.5.1PL0 Copyright (c) Steve Scherf et al.
# Submitted via: CDex 1.51
#
DISCID=03114712
DTITLE=Julio iglesias - My life - the greatest hits cd1
DYEAR=1998
DGENRE=Jazz
TTITLE0=To all the girls i 've loved before
TTITLE1=Moralito
TTITLE2=All of you
TTITLE3=Crazy
TTITLE4=My love
TTITLE5=Can't help falling in love
TTITLE6=Vincent
TTITLE7=Nathalie
TTITLE8=When i need you
TTITLE9=La paloma
TTITLE10=Crazy in love
TTITLE11=Fragile
TTITLE12=Caruso
TTITLE13=Summer wind
TTITLE14=Pelo amor de uma mulher
TTITLE15=Moonlight lady
TTITLE16=My way
TTITLE17=Me va, me va
EXTD=YEAR: 1998
EXTT0=
EXTT1=
EXTT2=
EXTT3=
EXTT4=
EXTT5=
EXTT6=
EXTT7=
EXTT8=
EXTT9=
EXTT10=
EXTT11=
EXTT12=
EXTT13=
EXTT14=
EXTT15=
EXTT16=
EXTT17=
PLAYORDER=
